HIERARCHY
ROOT Hips
{
	OFFSET -0.001795 -0.223333 0.028219
	CHANNELS 6 Xposition Yposition Zposition Zrotation Yrotation Xrotation 
	JOINT LeftUpLeg
	{
		OFFSET 0.069520 -0.091406 -0.006815
		CHANNELS 3 Zrotation Yrotation Xrotation
		JOINT LeftLeg
		{
			OFFSET 0.034277 -0.375199 -0.004496
			CHANNELS 3 Zrotation Yrotation Xrotation
			JOINT LeftFoot
			{
				OFFSET -0.013596 -0.397961 -0.043693
				CHANNELS 3 Zrotation Yrotation Xrotation
				JOINT LeftToe
				{
					OFFSET 0.026358 -0.055791 0.119288
					CHANNELS 3 Zrotation Yrotation Xrotation
					End Site
					{
						OFFSET 0.000000 0.000000 0.000000
					}
				}
			}
		}
	}
	JOINT RightUpLeg
	{
		OFFSET -0.067670 -0.090522 -0.004320
		CHANNELS 3 Zrotation Yrotation Xrotation
		JOINT RightLeg
		{
			OFFSET -0.038290 -0.382569 -0.008850
			CHANNELS 3 Zrotation Yrotation Xrotation
			JOINT RightFoot
			{
				OFFSET 0.015774 -0.398415 -0.042312
				CHANNELS 3 Zrotation Yrotation Xrotation
				JOINT RightToe
				{
					OFFSET -0.025372 -0.048144 0.123348
					CHANNELS 3 Zrotation Yrotation Xrotation
					End Site
					{
						OFFSET 0.000000 0.000000 0.000000
					}
				}
			}
		}
	}
	JOINT Spine
	{
		OFFSET -0.002533 0.108963 -0.026696
		CHANNELS 3 Zrotation Yrotation Xrotation
		JOINT Spine1
		{
			OFFSET 0.005487 0.135180 0.001092
			CHANNELS 3 Zrotation Yrotation Xrotation
			JOINT Spine2
			{
				OFFSET 0.001457 0.052922 0.025425
				CHANNELS 3 Zrotation Yrotation Xrotation
				JOINT Neck
				{
					OFFSET -0.002778 0.213870 -0.042857
					CHANNELS 3 Zrotation Yrotation Xrotation
					JOINT Head
					{
						OFFSET 0.005152 0.064970 0.051349
						CHANNELS 3 Zrotation Yrotation Xrotation
						End Site
						{
							OFFSET 0.000000 0.000000 0.000000
						}
					}
				}
				JOINT LeftShoulder
				{
					OFFSET 0.078845 0.121749 -0.034090
					CHANNELS 3 Zrotation Yrotation Xrotation
					JOINT LeftArm
					{
						OFFSET 0.090977 0.030469 -0.008868
						CHANNELS 3 Zrotation Yrotation Xrotation
						JOINT LeftForeArm
						{
							OFFSET 0.259612 -0.012772 -0.027456
							CHANNELS 3 Zrotation Yrotation Xrotation
							JOINT LeftHand
							{
								OFFSET 0.249234 0.008986 -0.001171
								CHANNELS 3 Zrotation Yrotation Xrotation
								End Site
								{
									OFFSET 0.000000 0.000000 0.000000
								}
							}
						}
					}
				}
				JOINT RightShoulder
				{
					OFFSET -0.081759 0.118833 -0.038615
					CHANNELS 3 Zrotation Yrotation Xrotation
					JOINT RightArm
					{
						OFFSET -0.096012 0.032551 -0.009143
						CHANNELS 3 Zrotation Yrotation Xrotation
						JOINT RightForeArm
						{
							OFFSET -0.253742 -0.013329 -0.021401
							CHANNELS 3 Zrotation Yrotation Xrotation
							JOINT RightHand
							{
								OFFSET -0.255298 0.007772 -0.005559
								CHANNELS 3 Zrotation Yrotation Xrotation
								End Site
								{
									OFFSET 0.000000 0.000000 0.000000
								}
							}
						}
					}
				}
			}
		}
	}
}
MOTION
Frames: 6
Frame Time: 0.050000
0.157913 0.928832 1.132086 -5.769249 -8.718879 -2.245336 20.057960 1.140455 -6.987893 -3.284337 0.923868 26.255920 0.910951 3.079540 3.524804 0.000000 0.000000 0.000000 -19.142896 0.115052 -13.585430 2.157394 0.534426 18.628530 4.561728 -0.091642 17.412476 0.000000 0.000000 0.000000 1.970763 -0.375066 6.576124 -5.779694 1.890515 -23.779166 -0.423920 5.636706 28.523005 10.258771 -3.721160 -29.545306 0.000000 0.000000 0.000000 9.993167 -21.527324 5.560016 -41.406030 -49.764487 11.067788 43.998916 -56.673257 -20.649276 0.000000 0.000000 0.000000 7.846805 6.661511 2.500291 44.865026 40.453931 8.538054 -17.441651 56.933358 -5.822182 0.000000 0.000000 0.000000 
0.197639 0.943528 1.129235 -7.510778 -10.397639 -1.280001 18.925925 1.018282 -5.788417 -3.959548 1.213214 23.731232 2.031197 5.301097 3.902046 0.000000 0.000000 0.000000 -19.495256 0.256844 -13.694810 4.615595 -0.004991 18.979798 1.829484 -6.410406 21.173815 0.000000 0.000000 0.000000 2.666689 -0.387630 6.010603 -6.075813 1.939479 -23.323646 -1.464398 7.083560 28.213656 9.048572 -3.172686 -28.187522 0.000000 0.000000 0.000000 17.255112 -22.544897 4.498904 -27.077066 -56.889956 7.613574 64.199391 -41.247003 -23.517303 0.000000 0.000000 0.000000 0.430577 9.931879 3.409819 36.325323 50.697128 9.812388 -40.656657 46.631280 -14.690958 0.000000 0.000000 0.000000 
0.229900 0.960945 1.128844 -7.830271 -12.745641 0.454485 17.148723 0.821609 -3.973775 -4.120560 1.108972 17.218050 2.596283 6.613650 5.703891 0.000000 0.000000 0.000000 -20.069927 0.509238 -13.608747 4.523764 0.132801 19.120779 0.672484 -9.891965 25.831328 0.000000 0.000000 0.000000 2.058596 -0.355774 5.863284 -6.714270 2.003316 -26.181610 -1.441633 8.929550 29.697445 10.923484 -4.151959 -28.729973 0.000000 0.000000 0.000000 24.984680 -21.123538 2.843739 -11.907637 -59.672453 1.052432 74.253681 -23.763906 -16.034380 0.000000 0.000000 0.000000 -6.484333 10.424816 3.024535 19.385060 56.446555 4.121944 -49.142907 31.817976 -12.173112 0.000000 0.000000 0.000000 
0.256249 0.980379 1.130430 -10.115183 -14.521852 2.819029 17.316646 0.750244 -1.909319 -3.395835 0.704161 10.781271 3.678696 8.743900 7.654136 0.000000 0.000000 0.000000 -17.060936 0.791629 -13.687853 1.764154 0.920682 19.341002 1.147295 -10.644007 29.955332 0.000000 0.000000 0.000000 2.137212 -0.365696 5.667002 -7.516622 2.157073 -25.831938 -1.212889 9.437417 28.118591 11.508631 -4.709101 -27.420331 0.000000 0.000000 0.000000 31.754385 -20.897700 1.626098 2.535507 -58.891661 -5.281986 79.592944 -5.806782 -3.928129 0.000000 0.000000 0.000000 -13.488619 9.607240 2.438026 2.417050 52.818768 -3.220648 -50.926613 20.769372 -8.239518 0.000000 0.000000 0.000000 
0.277898 0.998977 1.132987 -11.628067 -14.724504 3.678196 16.554082 0.665533 -1.629576 -2.862001 0.518562 8.521995 2.926800 7.544050 9.297721 0.000000 0.000000 0.000000 -15.507703 0.875980 -12.292006 0.975761 1.087358 18.821687 2.884855 -8.351317 29.547533 0.000000 0.000000 0.000000 1.270311 -0.366263 6.852875 -7.568119 2.142365 -26.683631 -1.739458 7.867796 27.641811 12.928682 -5.916942 -26.537852 0.000000 0.000000 0.000000 36.589492 -18.019093 0.353238 9.794127 -57.836339 -7.682851 82.888321 6.107592 5.990469 0.000000 0.000000 0.000000 -20.992801 5.981150 1.785775 -5.817423 48.786190 -6.239697 -46.393677 14.053960 -5.067198 0.000000 0.000000 0.000000 
0.294308 1.014394 1.134797 -14.716651 -12.949453 5.435769 18.320936 0.678502 -2.429725 -1.932509 0.264958 6.611038 1.496249 5.251916 9.905670 0.000000 0.000000 0.000000 -13.611770 0.873253 -11.916892 0.852312 1.107459 19.409122 3.044639 -8.784797 33.236976 0.000000 0.000000 0.000000 0.463633 -0.364292 8.189621 -7.546671 2.157905 -26.097061 -1.424733 4.717552 26.323853 12.737541 -6.225105 -25.497160 0.000000 0.000000 0.000000 37.881363 -17.734069 -0.185852 15.772661 -54.667914 -8.795377 84.452800 11.895407 11.511339 0.000000 0.000000 0.000000 -25.655356 2.768232 1.940769 -9.207943 42.950480 -6.659503 -42.949735 12.317646 -4.372540 0.000000 0.000000 0.000000 
